<svg xmlns="http://www.w3.org/2000/svg" viewBox="0 0 548 548"><path d="M486 196h-13v-63-2c0-2-1-5-3-7L365 4l-3-2V1l-2-1H97C85 0 75 10 75 22v174H62c-17 0-31 14-31 31v160c0 17 14 30 31 30h13v110c0 12 10 21 22 21h355c11 0 21-9 21-21V417h13c17 0 31-13 31-30V227c0-17-14-31-31-31zM97 22h249v110c0 5 5 10 11 10h95v54H97V22zm221 281c0 48-29 77-72 77s-68-32-68-74c0-44 28-76 71-76 44 0 69 33 69 73zM82 378V232h33v118h58v28H82zm370 143H97V417h355v104zm9-150c-10 4-29 8-48 8-27 0-46-6-60-19a71 71 0 01-20-53c0-49 35-76 83-76 19 0 33 3 40 7l-6 26c-8-3-18-6-34-6-28 0-49 15-49 47 0 30 19 48 46 48l16-2v-31h-22v-26h54v77z"/><path d="M213 305c0 29 13 49 35 49s35-21 35-49c0-27-13-49-35-49s-35 21-35 49z"/></svg>